<?xml version="1.0" encoding="utf-8"?>
<!-- Generator: Adobe Illustrator 24.1.3, SVG Export Plug-In . SVG Version: 6.00 Build 0)  -->
<svg version="1.1" id="レイヤー_1" xmlns="http://www.w3.org/2000/svg" xmlns:xlink="http://www.w3.org/1999/xlink" x="0px"
	 y="0px" viewBox="0 0 32 32" style="enable-background:new 0 0 32 32;" xml:space="preserve">
<style type="text/css">
	.st0{fill:#1DA1F2;}
</style>
<g>
	<path class="st0" d="M26.3272381,10.704524c0.0163612,0.2309904,0.0163612,0.4619818,0.0163612,0.6929731
		c0,7.0442734-5.3614044,15.1607323-15.1607313,15.1607323c-3.019249,0-5.8233876-0.8739185-8.182868-2.3917236
		c0.4292588,0.0490856,0.8416748,0.0654488,1.2868142,0.0654488c2.4913378,0,4.7844081-0.8411942,6.6154962-2.276228
		c-2.342638-0.0500488-4.3055825-1.5842152-4.9821949-3.6958618c0.3301253,0.0500488,0.6597691,0.0827732,1.0062561,0.0827732
		c0.4783444,0,0.9571705-0.0664101,1.4023094-0.1819057c-2.4412894-0.4947071-4.2728581-2.6390772-4.2728581-5.2290668
		c0-0.0163622,0-0.0500488,0-0.0664101c0.7093358,0.3965349,1.5346489,0.6438885,2.408566,0.6766119
		c-1.4350338-0.9566889-2.375361-2.5899906-2.375361-4.4379215c0-0.9894123,0.2637153-1.897016,0.725698-2.6891236
		c2.6231952,3.2338786,6.5659285,5.3455243,10.9874878,5.5765157c-0.0827723-0.3965349-0.1323385-0.8084698-0.1323385-1.2213669
		c0-2.9364772,2.3758421-5.3281999,5.328681-5.3281999c1.5341682,0,2.9201164,0.6429257,3.8936481,1.6823869
		c1.2040424-0.2309914,2.3589993-0.6756496,3.3816166-1.2868142c-0.3960533,1.2377286-1.2372475,2.2771897-2.3426361,2.9364772
		C27.003849,8.6583252,28.0428295,8.361886,29,7.9489894C28.2738209,9.0048122,27.3666992,9.9451399,26.3272381,10.704524z"/>
</g>
</svg>
