<?xml version="1.0" encoding="utf-8"?>
<!-- Generator: Adobe Illustrator 24.1.3, SVG Export Plug-In . SVG Version: 6.00 Build 0)  -->
<svg version="1.1" id="レイヤー_1" xmlns="http://www.w3.org/2000/svg" xmlns:xlink="http://www.w3.org/1999/xlink" x="0px"
	 y="0px" viewBox="0 0 32 32" style="enable-background:new 0 0 32 32;" xml:space="preserve">
<style type="text/css">
	.st0{fill:#FF0000;}
</style>
<g>
	<path class="st0" d="M25.7966213,6.4376516c0.5469418,0.0628982,1.7502098,0.0628982,2.8126431,1.1877732
		c0,0,0.8591537,0.8432002,1.1093788,2.7811942c0.2967148,2.2652464,0.2812176,4.5304928,0.2812176,4.5304928v2.1257772
		c0,0,0.0154972,2.2652454-0.2812176,4.5304928c-0.2502251,1.9224968-1.1093788,2.7811928-1.1093788,2.7811928
		c-1.0624332,1.1093788-2.2657013,1.1093788-2.8126431,1.1722775c0,0-3.9060688,0.2971706-9.7966213,0.2971706
		c-7.2811499-0.0628986-9.5154028-0.2816753-9.5154028-0.2816753c-0.6253352-0.1093864-2.0314293-0.0783939-3.0938616-1.1877728
		c0,0-0.8591528-0.858696-1.1093783-2.7811928c-0.2967154-2.2652473-0.2812188-4.5304928-0.2812188-4.5304928v-2.1257772
		c0,0-0.0154966-2.2652464,0.2812188-4.5304928c0.2502255-1.937994,1.1093783-2.7811942,1.1093783-2.7811942
		c1.0624323-1.1248751,2.2657022-1.1248751,2.8126431-1.1877732c0,0,3.9060688-0.2816744,9.7966213-0.2816744
		S25.7966213,6.4376516,25.7966213,6.4376516z M20.6717854,15.7183256l-7.5623674-3.9525585v7.8595381L20.6717854,15.7183256z"/>
</g>
</svg>
